<?xml version="1.0" encoding="UTF-8"?>
<svg id="Capa_2" data-name="Capa 2" xmlns="http://www.w3.org/2000/svg" viewBox="0 0 1030.44 957.53">
  <defs>
    <style>
      .cls-1 {
        fill: #fff;
      }

      .cls-2 {
        fill: #b9d7ff;
      }
    </style>
  </defs>
  <g id="Layer_1" data-name="Layer 1">
    <g>
      <path class="cls-1" d="m911.46,378.5c-.51,0-.99.14-1.5.15,9.45-21.86,14.74-45.94,14.74-71.27,0-99.33-80.52-179.85-179.84-179.85-35.1,0-67.75,10.22-95.44,27.61C611.98,64.13,522.53,0,418.01,0c-138.2,0-250.23,112.03-250.23,250.23,0,10.45.84,20.68,2.09,30.79-.7,0-1.38-.11-2.09-.11C75.12,280.91,0,356.03,0,448.69s75.12,167.78,167.78,167.78h743.68c65.72,0,118.99-53.27,118.99-118.99s-53.27-118.99-118.99-118.99Z"/>
      <path class="cls-2" d="m329.73,909.63c-20.21,42.05-70.68,59.75-112.73,39.54-42.05-20.21-59.75-70.68-39.54-112.73,20.21-42.05,150.92-118.99,150.92-118.99,0,0,21.56,150.13,1.35,192.18Z"/>
      <path class="cls-2" d="m539.79,909.63c-20.21,42.05-70.68,59.75-112.73,39.54-42.05-20.21-59.75-70.68-39.54-112.73,20.21-42.05,150.92-118.99,150.92-118.99,0,0,21.56,150.13,1.35,192.18Z"/>
      <path class="cls-2" d="m752.82,909.63c-20.21,42.05-70.68,59.75-112.73,39.54-42.05-20.21-59.75-70.68-39.54-112.73,20.21-42.05,150.92-118.99,150.92-118.99,0,0,21.56,150.13,1.35,192.18Z"/>
    </g>
  </g>
</svg>