<?xml version="1.0" encoding="UTF-8"?>
<svg id="Capa_2" data-name="Capa 2" xmlns="http://www.w3.org/2000/svg" viewBox="0 0 993.04 727.23">
  <defs>
    <style>
      .cls-1 {
        fill: #fff;
      }

      .cls-2 {
        fill: #ffdc7b;
      }
    </style>
  </defs>
  <g id="Layer_1" data-name="Layer 1">
    <g>
      <g>
        <circle class="cls-2" cx="314.76" cy="314.76" r="127.3" transform="translate(-46.7 574.56) rotate(-80.71)"/>
        <g>
          <path class="cls-2" d="m314.76,139.09h0c-8.43,0-15.26-6.83-15.26-15.26V15.26c0-8.43,6.83-15.26,15.26-15.26h0c8.43,0,15.26,6.83,15.26,15.26v108.57c0,8.43-6.83,15.26-15.26,15.26Z"/>
          <path class="cls-2" d="m314.76,629.53h0c-8.43,0-15.26-6.83-15.26-15.26v-108.57c0-8.43,6.83-15.26,15.26-15.26h0c8.43,0,15.26,6.83,15.26,15.26v108.57c0,8.43-6.83,15.26-15.26,15.26Z"/>
        </g>
        <g>
          <path class="cls-2" d="m438.98,190.55h0c-5.96-5.96-5.96-15.62,0-21.58l76.77-76.77c5.96-5.96,15.62-5.96,21.58,0h0c5.96,5.96,5.96,15.62,0,21.58l-76.77,76.77c-5.96,5.96-15.62,5.96-21.58,0Z"/>
          <path class="cls-2" d="m92.19,537.33h0c-5.96-5.96-5.96-15.62,0-21.58l76.77-76.77c5.96-5.96,15.62-5.96,21.58,0h0c5.96,5.96,5.96,15.62,0,21.58l-76.77,76.77c-5.96,5.96-15.62,5.96-21.58,0Z"/>
        </g>
        <g>
          <path class="cls-2" d="m490.43,314.76h0c0-8.43,6.83-15.26,15.26-15.26h108.57c8.43,0,15.26,6.83,15.26,15.26h0c0,8.43-6.83,15.26-15.26,15.26h-108.57c-8.43,0-15.26-6.83-15.26-15.26Z"/>
          <path class="cls-2" d="m0,314.76h0c0-8.43,6.83-15.26,15.26-15.26h108.57c8.43,0,15.26,6.83,15.26,15.26h0c0,8.43-6.83,15.26-15.26,15.26H15.26c-8.43,0-15.26-6.83-15.26-15.26Z"/>
        </g>
        <g>
          <path class="cls-2" d="m438.98,438.98h0c5.96-5.96,15.62-5.96,21.58,0l76.77,76.77c5.96,5.96,5.96,15.62,0,21.58h0c-5.96,5.96-15.62,5.96-21.58,0l-76.77-76.77c-5.96-5.96-5.96-15.62,0-21.58Z"/>
          <path class="cls-2" d="m92.19,92.19h0c5.96-5.96,15.62-5.96,21.58,0l76.77,76.77c5.96,5.96,5.96,15.62,0,21.58h0c-5.96,5.96-15.62,5.96-21.58,0l-76.77-76.77c-5.96-5.96-5.96-15.62,0-21.58Z"/>
        </g>
      </g>
      <path class="cls-1" d="m898.06,537.28c-.41,0-.79.11-1.2.12,7.54-17.45,11.77-36.67,11.77-56.89,0-79.29-64.27-143.56-143.56-143.56-28.02,0-54.08,8.15-76.18,22.04-29.89-72.65-101.29-123.83-184.72-123.83-110.31,0-199.74,89.43-199.74,199.74,0,8.34.67,16.5,1.67,24.57-.56,0-1.1-.08-1.67-.08-73.96,0-133.92,59.96-133.92,133.92s59.96,133.92,133.92,133.92h593.62c52.46,0,94.98-42.52,94.98-94.98s-42.52-94.98-94.98-94.98Z"/>
    </g>
  </g>
</svg>