<?xml version="1.0" encoding="UTF-8"?>
<svg id="Capa_2" data-name="Capa 2" xmlns="http://www.w3.org/2000/svg" viewBox="0 0 875.52 875.52">
  <defs>
    <style>
      .cls-1 {
        fill: #f8ca4d;
      }
    </style>
  </defs>
  <g id="Layer_1" data-name="Layer 1">
    <g>
      <circle class="cls-1" cx="437.76" cy="437.76" r="177.05" transform="translate(-181.33 437.76) rotate(-45)"/>
      <g>
        <path class="cls-1" d="m437.76,193.45h0c-11.72,0-21.22-9.5-21.22-21.22V21.22c0-11.72,9.5-21.22,21.22-21.22h0c11.72,0,21.22,9.5,21.22,21.22v151c0,11.72-9.5,21.22-21.22,21.22Z"/>
        <path class="cls-1" d="m437.76,875.52h0c-11.72,0-21.22-9.5-21.22-21.22v-151c0-11.72,9.5-21.22,21.22-21.22h0c11.72,0,21.22,9.5,21.22,21.22v151c0,11.72-9.5,21.22-21.22,21.22Z"/>
      </g>
      <g>
        <path class="cls-1" d="m610.52,265h0c-8.29-8.29-8.29-21.73,0-30.02l106.77-106.77c8.29-8.29,21.73-8.29,30.02,0h0c8.29,8.29,8.29,21.73,0,30.02l-106.77,106.77c-8.29,8.29-21.73,8.29-30.02,0Z"/>
        <path class="cls-1" d="m128.22,747.3h0c-8.29-8.29-8.29-21.73,0-30.02l106.77-106.77c8.29-8.29,21.73-8.29,30.02,0h0c8.29,8.29,8.29,21.73,0,30.02l-106.77,106.77c-8.29,8.29-21.73,8.29-30.02,0Z"/>
      </g>
      <g>
        <path class="cls-1" d="m682.07,437.76h0c0-11.72,9.5-21.22,21.22-21.22h151c11.72,0,21.22,9.5,21.22,21.22h0c0,11.72-9.5,21.22-21.22,21.22h-151c-11.72,0-21.22-9.5-21.22-21.22Z"/>
        <path class="cls-1" d="m0,437.76h0c0-11.72,9.5-21.22,21.22-21.22h151c11.72,0,21.22,9.5,21.22,21.22h0c0,11.72-9.5,21.22-21.22,21.22H21.22c-11.72,0-21.22-9.5-21.22-21.22Z"/>
      </g>
      <g>
        <path class="cls-1" d="m610.52,610.52h0c8.29-8.29,21.73-8.29,30.02,0l106.77,106.77c8.29,8.29,8.29,21.73,0,30.02h0c-8.29,8.29-21.73,8.29-30.02,0l-106.77-106.77c-8.29-8.29-8.29-21.73,0-30.02Z"/>
        <path class="cls-1" d="m128.22,128.22h0c8.29-8.29,21.73-8.29,30.02,0l106.77,106.77c8.29,8.29,8.29,21.73,0,30.02h0c-8.29,8.29-21.73,8.29-30.02,0l-106.77-106.77c-8.29-8.29-8.29-21.73,0-30.02Z"/>
      </g>
    </g>
  </g>
</svg>